<svg xmlns="http://www.w3.org/2000/svg" width="118.333" height="118.467" viewBox="0 0 118.333 118.467">
  <g id="Azotea" transform="translate(-2280.588 -605.69)">
    <path id="Trazado_210" data-name="Trazado 210" d="M2379.847,707.942h2.11a2.078,2.078,0,0,1-.27-1.063l31.655.408a1.959,1.959,0,0,1-.1.656h2.055a2.868,2.868,0,0,0,.067-.527q.165-9.517.256-19.034a2.952,2.952,0,0,0-2.9-2.955,13.1,13.1,0,0,0-1.426-.011.761.761,0,0,1-.807-.49,8.718,8.718,0,0,0-5.873-4.381c-.574-.131-1.167-.179-1.779-.269.013-.956.052-1.885.027-2.812a3,3,0,0,1,.639-1.964,21.859,21.859,0,0,0,1.57-3.066c2.7-.343,3.692-2.645,2.043-5.056a1.064,1.064,0,0,1-.129-.576c0-1.157.037-2.315.031-3.472a7.8,7.8,0,0,0-5.937-7.553,19.013,19.013,0,0,0-4.123-.3,7.813,7.813,0,0,0-7.648,6.577c-.206,1.443-.116,2.927-.2,4.389a1.753,1.753,0,0,1-.34.93,2.966,2.966,0,0,0,1.645,4.794c.218.052.44.085.684.131a7.119,7.119,0,0,0,1.706,3.653.555.555,0,0,1,.153.324c-.006,1.3-.026,2.593-.043,3.916-.179.011-.3.02-.418.026a8.231,8.231,0,0,0-6.716,3.533,2.722,2.722,0,0,1-2.8,1.326,2.9,2.9,0,0,0-3.061,2.964c-.029,1.24-.039,2.481-.049,3.721-.007.792.349,1.21,1,1.2.627-.007.965-.4.979-1.169.021-1.136.03-2.274.046-3.41.015-1.071.308-1.359,1.372-1.345l29.022.374c1.1.014,1.372.3,1.358,1.423q-.083,6.51-.167,13.021l-.043,3.387-31.754-.408c.017-1.324.045-2.6.045-3.883a.988.988,0,1,0-1.974-.013c-.021.454-.041.911-.018,1.364C2379.818,704.166,2379.423,706.066,2379.847,707.942Zm11.186-37.761a.882.882,0,0,1-.958-.86c-.031-.529.281-.871.982-1.02Zm11.772,2.135a4.819,4.819,0,0,1-5.316,3.964,4.933,4.933,0,0,1-4.462-4.876c-.009-1.008.022-2.016.036-3.12a11.174,11.174,0,0,0,7.939-2.528c.626.66,1.247,1.31,1.856,1.97a.509.509,0,0,1,.121.331A33.612,33.612,0,0,1,2402.805,672.316Zm-1.992,8.12a1.838,1.838,0,0,1-1.339,1.557,4.566,4.566,0,0,1-3.209-.023,1.979,1.979,0,0,1-1.37-2.05c.007-.741.019-1.482.03-2.341a7.048,7.048,0,0,0,5.941.086C2400.854,678.64,2400.9,679.544,2400.813,680.436Zm5.123-11.016c.041.535-.311.878-.967.976l.025-1.923A.939.939,0,0,1,2405.936,669.42Zm-13.091-3.1c-.552-.045-1.109-.02-1.638-.027a31.577,31.577,0,0,1,.082-4.033,5.716,5.716,0,0,1,5.4-4.8,17.455,17.455,0,0,1,3.46.131,5.754,5.754,0,0,1,4.859,5.413c.063,1.129-.016,2.268-.033,3.589a3.971,3.971,0,0,1-.863-.469c-.772-.747-1.5-1.538-2.264-2.3a.98.98,0,0,0-1.531-.068A9.89,9.89,0,0,1,2392.844,666.319Zm-5.66,18.747a6.87,6.87,0,0,1,3.784-2.632,7.236,7.236,0,0,1,1.156-.215,2,2,0,0,1,1.954.637c1.207,1.321,2.891,1.49,4.588,1.34a4.541,4.541,0,0,0,3.387-1.7.477.477,0,0,1,.3-.176,6.735,6.735,0,0,1,6,3.016Z" transform="translate(-36.549 -18.367)" fill="#0a3459"/>
    <path id="Trazado_211" data-name="Trazado 211" d="M2409.435,718.226a2.975,2.975,0,1,1-2.973-3.009A2.993,2.993,0,0,1,2409.435,718.226Zm-1.988.011a.988.988,0,1,0-1.975-.056.988.988,0,0,0,1.975.056Z" transform="translate(-45.345 -40.412)" fill="#d72162"/>
    <path id="Trazado_212" data-name="Trazado 212" d="M2381.867,719.508c-.013,1.072-.315,1.5-1.035,1.479-.7-.023-.962-.441-.949-1.489s.335-1.516,1.034-1.492C2381.594,718.03,2381.881,718.483,2381.867,719.508Z" transform="translate(-36.637 -41.441)" fill="#d72162"/>
    <path id="Trazado_213" data-name="Trazado 213" d="M2327.354,702.293c.023-.453,0-.91-.018-1.364a.979.979,0,0,0-1-1.037.968.968,0,0,0-.979,1.05c0,1.28.028,2.559.045,3.883l-31.754.408-.044-3.387q-.083-6.51-.167-13.021c-.014-1.12.261-1.409,1.358-1.423l29.022-.374c1.064-.013,1.356.274,1.372,1.345.016,1.136.025,2.274.046,3.41.015.769.352,1.162.979,1.169.654.008,1.008-.41,1-1.2-.011-1.24-.021-2.481-.049-3.721a2.9,2.9,0,0,0-3.06-2.964,2.723,2.723,0,0,1-2.8-1.326,8.232,8.232,0,0,0-6.716-3.533c-.119-.006-.239-.014-.417-.026-.017-1.323-.038-2.619-.044-3.916a.55.55,0,0,1,.152-.324,7.111,7.111,0,0,0,1.706-3.653c.245-.047.467-.08.685-.131a2.966,2.966,0,0,0,1.645-4.794,1.749,1.749,0,0,1-.339-.93c-.086-1.463,0-2.946-.2-4.389a7.813,7.813,0,0,0-7.648-6.577,19.015,19.015,0,0,0-4.123.3,7.8,7.8,0,0,0-5.937,7.553c-.007,1.157.03,2.315.03,3.472a1.066,1.066,0,0,1-.128.576c-1.65,2.411-.659,4.714,2.043,5.056.094.189.223.444.372.738.7,1.39,1.852,3.676,1.835,4.291-.025.927.015,1.856.027,2.812-.611.09-1.2.138-1.779.269a8.719,8.719,0,0,0-5.873,4.381.76.76,0,0,1-.806.49,13.1,13.1,0,0,0-1.426.011,2.952,2.952,0,0,0-2.9,2.955q.1,9.517.255,19.034a2.932,2.932,0,0,0,.067.527h2.056a1.965,1.965,0,0,1-.1-.656l31.655-.408a2.066,2.066,0,0,1-.27,1.063h2.11C2327.655,706.066,2327.26,704.166,2327.354,702.293ZM2316.021,668.3c.7.148,1.013.49.982,1.02a.882.882,0,0,1-.958.86Zm-11.923-.245a.513.513,0,0,1,.121-.331c.61-.66,1.232-1.31,1.856-1.97a11.176,11.176,0,0,0,7.939,2.528c.014,1.1.046,2.113.037,3.12a4.935,4.935,0,0,1-4.463,4.876,4.821,4.821,0,0,1-5.317-3.964A33.84,33.84,0,0,1,2304.1,668.057Zm2.115,9.608a7.046,7.046,0,0,0,5.941-.086c.011.859.023,1.6.03,2.341a1.978,1.978,0,0,1-1.369,2.05,4.565,4.565,0,0,1-3.209.023,1.839,1.839,0,0,1-1.339-1.557C2306.181,679.544,2306.225,678.64,2306.213,677.665Zm-4.128-9.192.025,1.923c-.656-.1-1.007-.44-.967-.976A.94.94,0,0,1,2302.084,668.473Zm4.681-4.709a.98.98,0,0,0-1.531.068c-.761.758-1.491,1.549-2.264,2.3a3.973,3.973,0,0,1-.863.469c-.017-1.321-.1-2.459-.033-3.589a5.753,5.753,0,0,1,4.858-5.413,17.459,17.459,0,0,1,3.46-.131,5.716,5.716,0,0,1,5.4,4.8,31.623,31.623,0,0,1,.081,4.033c-.528.007-1.086-.018-1.637.027A9.89,9.89,0,0,1,2306.766,663.764Zm-8.042,21.574a6.736,6.736,0,0,1,6-3.016.476.476,0,0,1,.3.176,4.539,4.539,0,0,0,3.387,1.7c1.7.151,3.381-.019,4.588-1.34a2.006,2.006,0,0,1,1.955-.637,7.23,7.23,0,0,1,1.156.215,6.866,6.866,0,0,1,3.784,2.632Z" transform="translate(-4.012 -18.367)" fill="#0a3459"/>
    <path id="Trazado_214" data-name="Trazado 214" d="M2293.336,718.007" transform="translate(-4.704 -41.441)"/>
    <path id="Trazado_215" data-name="Trazado 215" d="M2311.537,724.71v-1.549l.141,0c.24,0,.477-.009.713-.009.292,0,.583.007.871.032.083.008.162.011.236.011a1.653,1.653,0,0,0,1.628-1.3q2.663-7.876,5.363-15.739l.978-2.859a4.034,4.034,0,0,1,.641-1.451,4.153,4.153,0,0,1,1.59-.191,2.934,2.934,0,0,0,.314-.032l.135-.02.555-.067V634.69h-15.957c-1.5,0-1.51-.026-1.854-1.378-.058-.224-.713-2.717-.713-2.717l-.757,1.43c-.128.242-.249.466-.365.68-.246.456-.467.865-.668,1.284a1.122,1.122,0,0,1-1.164.709q-6.13-.012-12.249-.008-3.914,0-7.827,0c-.785,0-.957-.13-1.151-.866-.183-.7-.361-1.4-.539-2.1-.264-1.041-.529-2.081-.814-3.117a1.131,1.131,0,0,1,.273-1.165,55.3,55.3,0,0,1,37.341-19.833,75.021,75.021,0,0,1,7.8-.421,58.112,58.112,0,0,1,24.544,5.194,56.708,56.708,0,0,1,19.65,15.05,1.148,1.148,0,0,1,.275,1.171c-.273,1-.53,2.011-.785,3.02-.186.731-.373,1.462-.564,2.192s-.376.87-1.149.871q-4.015,0-8.03,0-6.02,0-12.039.008a1.121,1.121,0,0,1-1.172-.706c-.193-.4-.4-.8-.641-1.261l-1.092-2.117-.612,2.125c-.107.371-.2.68-.283.991-.236.849-.378.957-1.273.958l-16.407,0v66.52l.235.189.182.17.318.053h.051l.052-.008a3.476,3.476,0,0,1,.57-.052c.989,0,1.454.5,1.989,2.138,1.276,3.913,2.636,7.87,3.951,11.7q1.115,3.244,2.22,6.493a1.652,1.652,0,0,0,1.629,1.3c.074,0,.152,0,.235-.011.288-.025.579-.032.872-.032.235,0,.473.005.713.009l.141,0v1.549Zm14.941-1.585h8l-.115-.729c-.182-1.155-1.776-5.908-3.275-10.106-3.087-8.644-3.442-8.8-3.727-8.92l-.881-.381Zm-10.02-.017h8.191V703.4l-1.339-.285Zm30.147-93.2c.111.22.221.431.33.637a12.046,12.046,0,0,1,.585,1.215,1.952,1.952,0,0,0,2.063,1.343c2.854-.021,5.674-.026,8.493-.026l9.574,0,1.033-4.087h-22.534Zm-63.12,2.969.437.128a.993.993,0,0,0,.33.064h.667q5.265,0,10.529.006,3.318,0,6.637,0a1.4,1.4,0,0,0,1.164-.573c.35-.622.661-1.248.992-1.911l.805-1.6H2282.5Zm25.086.174h34.038l1.038-4.065h-36.106Zm6.779-23.406a53.4,53.4,0,0,0-31.169,16.607l-1,1.063h22.555l.079-.539a23.008,23.008,0,0,1,10-15.993Zm20.549.052c-.089,0-.171,0-.247.008l-1.8.131,1.491,1.02a22.687,22.687,0,0,1,10.033,15.912l.08.538h22.516l-.989-1.061a53.034,53.034,0,0,0-18.57-13.042C2344.129,611.4,2338.048,609.7,2335.9,609.7Zm-10.294-.76a2.464,2.464,0,0,0-.47.044c-8.784,1.73-14.528,6.855-17.074,15.232a13.675,13.675,0,0,0-.35,1.6c-.044.241-.086.486-.137.734l-.153.757h36.214l-.068-.693-.023-.278a5.845,5.845,0,0,0-.069-.608,21.1,21.1,0,0,0-16.652-16.618l-.113-.023A5.677,5.677,0,0,0,2325.6,608.939Z" transform="translate(0 -0.553)" fill="#0a3459"/>
    <g id="Grupo_107" data-name="Grupo 107" transform="translate(2285.555 687.682)">
      <g id="Grupo_106" data-name="Grupo 106" transform="translate(0 0)">
        <g id="Grupo_105" data-name="Grupo 105">
          <path id="Trazado_216" data-name="Trazado 216" d="M2292.246,770.212h-3.786v-30.17a4.425,4.425,0,0,1,4.42-4.42h60.659v3.786H2292.88a.634.634,0,0,0-.634.634Z" transform="translate(-2288.46 -735.623)" fill="#0a3459"/>
        </g>
      </g>
    </g>
    <g id="Grupo_109" data-name="Grupo 109" transform="translate(2348.936 687.682)">
      <g id="Grupo_108" data-name="Grupo 108" transform="translate(0 0)">
        <path id="Trazado_217" data-name="Trazado 217" d="M2438.885,770.212H2435.1V740.676a1.268,1.268,0,0,0-1.267-1.267H2388.9v-3.786h44.932a5.06,5.06,0,0,1,5.053,5.053Z" transform="translate(-2388.9 -735.623)" fill="#0a3459"/>
      </g>
    </g>
    <rect id="Rectángulo_127" data-name="Rectángulo 127" width="7.975" height="1.628" rx="0.814" transform="translate(2301.583 676.99)" fill="#d72162"/>
    <rect id="Rectángulo_128" data-name="Rectángulo 128" width="1.984" height="5.547" rx="0.992" transform="translate(2321.436 675.421)" fill="#d72162"/>
    <path id="Trazado_218" data-name="Trazado 218" d="M2447.337,613.873h2.556c0,.929-.036,1.826.019,2.716a1.734,1.734,0,0,0,.4.969c.542.615,1.157,1.166,1.7,1.7l-1.779,1.853c-.86-.859-1.723-1.687-2.537-2.56a1.448,1.448,0,0,1-.347-.876C2447.315,616.431,2447.337,615.184,2447.337,613.873Z" transform="translate(-61.523 -3.019)" fill="#d72162"/>
    <g id="Grupo_111" data-name="Grupo 111" transform="translate(2378.122 605.69)">
      <g id="Grupo_110" data-name="Grupo 110">
        <path id="Trazado_219" data-name="Trazado 219" d="M2444.364,624.117a9.214,9.214,0,1,1,9.214-9.214A9.224,9.224,0,0,1,2444.364,624.117Zm0-16.534a7.321,7.321,0,1,0,7.321,7.321A7.329,7.329,0,0,0,2444.364,607.583Z" transform="translate(-2435.151 -605.69)" fill="#0a3459"/>
      </g>
    </g>
    <path id="Trazado_220" data-name="Trazado 220" d="M2335.986,694.686a8.858,8.858,0,0,0-5.992-9.033c-1.839-.7-.874-3.873-.874-3.873l-1.856,3.722s.367,2.676,3.922,3.516c.942.223,2.813,2.01,2.941,3.009C2334.7,696.489,2335.986,694.686,2335.986,694.686Z" transform="translate(-17.222 -28.075)" fill="#0a3459"/>
    <path id="Trazado_221" data-name="Trazado 221" d="M2298.825,694.686a8.857,8.857,0,0,1,5.992-9.033c1.839-.7.875-3.873.875-3.873l1.855,3.722s-.366,2.676-3.922,3.516c-.941.223-2.812,2.01-2.941,3.009C2300.109,696.489,2298.825,694.686,2298.825,694.686Z" transform="translate(-6.72 -28.075)" fill="#0a3459"/>
    <rect id="Rectángulo_129" data-name="Rectángulo 129" width="3.786" height="33.639" transform="translate(2339.964 688.632)" fill="#0a3459"/>
  </g>
</svg>
