<svg xmlns="http://www.w3.org/2000/svg" width="126.004" height="117.499" viewBox="0 0 126.004 117.499">
  <g id="HotDeks" transform="translate(-3049.865 -605.653)">
    <path id="Trazado_222" data-name="Trazado 222" d="M3165.658,743.159a4.667,4.667,0,0,1-4.726-4.747c-.029-2.783-.023-5.615-.016-8.354q0-1.74,0-3.48V703.2h-8.738v.713c0,.317,0,.63-.007.939-.01.833-.019,1.62.039,2.428a2.056,2.056,0,0,0,.971,1.39c2.144,1.354,3.053,3.334,2.5,5.431-.614,2.307-2.389,3.59-5,3.612q-2.167.018-4.334.016l-8.692-.007,0,2.721c-.006,2.029-.011,3.946.04,5.891a2.473,2.473,0,0,0,1.031,1.623c2.864,2.482,5.739,4.95,8.66,7.457l2.058,1.767L3148,738.849l-10.286-8.807v7.6h-2.237v-7.8l-10.429,8.912-1.449-1.652.418-.362c.672-.582,1.335-1.156,2-1.727l1.96-1.684c2.069-1.78,4.209-3.62,6.335-5.4a2.878,2.878,0,0,0,1.118-2.467c-.041-1.606-.034-3.211-.026-4.911,0-.693.007-2.837.007-2.837h-6.689c-1.743,0-3.469,0-5.2-.006a16.95,16.95,0,0,1-2.263-.106,4.685,4.685,0,0,1-3.946-3.629,4.434,4.434,0,0,1,1.9-4.83,3.073,3.073,0,0,0,1.661-3.316c-.029-.379-.022-.764-.014-1.209,0-.218.008-.442.008-.679v-.713h-16.03l0,2.367c0,1.75-.008,3.561.033,5.336.019.718.785,1.25,1.019,1.4a4.82,4.82,0,0,1,2.444,5.453,4.691,4.691,0,0,1-4.789,3.536c-1.564.026-3.129.032-4.693.032-.972,0-8.541-.01-8.541-.01l0,2.655c0,2.108-.01,4.1.04,6.129a2.105,2.105,0,0,0,.945,1.411l.1.082q3.834,3.311,7.681,6.6l2.5,2.143c.17.147.339.295.518.451l-1.428,1.669-10.307-8.811v7.612h-2.268v-7.733l-10.36,8.857-1.441-1.644c.178-.165.352-.324.53-.477q1.336-1.148,2.676-2.292c2.466-2.11,5.015-4.291,7.489-6.479a3.413,3.413,0,0,0,1.047-2.256c.068-1.693.058-3.373.047-5.152,0-.671-.009-1.354-.009-2.054v-.713l-3.193,0c-.871,0-1.744.005-2.616.009s-1.739.009-2.608.009c-2.2,0-3.872-.031-5.426-.1a4.512,4.512,0,0,1-3.645-2.1,4.418,4.418,0,0,1-.385-4.1,8.4,8.4,0,0,1,2.248-2.633l.146-.131a2.24,2.24,0,0,0,.969-1.888c-.038-1.518-.031-3.016-.024-4.6,0-.623.006-2.6.006-2.6h-8.743l0,11.259q0,11.888-.01,23.777a4.664,4.664,0,0,1-4.716,4.909,5.7,5.7,0,0,1-.637-.036,4.6,4.6,0,0,1-4.055-4.119c-.051-.537-.05-1.08-.05-1.655l0-34.014-1-.17c-.216-.035-.4-.064-.58-.1a4.744,4.744,0,0,1-3.856-5.194,4.607,4.607,0,0,1,4.615-4.186q3.775-.03,7.55-.026l11.486.007v-5.633l0-1.237c0-.944-.007-1.886.008-2.83.043-2.873,1.884-4.825,4.58-4.86,3.617-.046,7.347-.07,11.085-.07,3.585,0,7.286.022,11,.064a4.556,4.556,0,0,1,4.622,4.819c.031,1.907.03,3.849.029,5.727q0,1.408,0,2.816a1.292,1.292,0,0,0,.072.394l.045.157.14.533h15.759l0-5.506c0-2.516-.008-5.031.01-7.547.021-3.13,1.863-5.013,4.925-5.032q5.359-.036,10.718-.036t10.718.036c3.071.02,4.914,1.9,4.931,5.03.014,2.831.01,5.662.008,8.549l0,4.523.678.034.482.028c.344.021.669.041.994.041,3.227,0,15.788,0,15.788,0,3.372,0,5.453,1.519,5.707,4.167.275,2.87-1.363,4.7-4.87,5.439l-.566.119v10.6q0,11.992-.008,23.985c0,2.769-1.472,4.729-3.835,5.116A5.557,5.557,0,0,1,3165.658,743.159Zm-2.513-26.555q0,10.7,0,21.4c0,1.794.983,2.953,2.5,2.953,1.5-.021,2.465-1.107,2.549-2.835.009-.173.007-.346.005-.519v-6.584q0-12.822,0-25.643c0-.327-.021-.654-.043-.991l-.029-.463-.036-.676h-4.947Zm-105.567-12.684-.029.455c-.02.288-.035.53-.036.772q0,16.291,0,32.582l0,.223a2.12,2.12,0,0,0,.353,1.521,3.564,3.564,0,0,0,2.157,1.4l.089,0a3.316,3.316,0,0,0,2.133-1.336,2.5,2.5,0,0,0,.325-1.648c0-.108-.008-.215-.008-.316q.011-16.094,0-32.187c0-.324-.017-.649-.037-.988l-.054-1.159h-4.858Zm39.664,15.226q2.841,0,5.683-.014h.312a2.438,2.438,0,0,0,1.827-.5,3.65,3.65,0,0,0,1.08-2.5c-.048-.759-.466-2.032-2.737-2.032q-7.907.015-15.786.012l-12.92,0c-.1,0-.2,0-.3.012a2.48,2.48,0,0,0-.447,4.862,6.158,6.158,0,0,0,1.615.155q3.861.008,7.725.006h5.952Zm50.149-3.643q1.609,0,3.219-.009c1.842-.012,2.956-.95,2.977-2.508a2.38,2.38,0,0,0-.633-1.743,3.127,3.127,0,0,0-2.284-.806h-28.159c-.056,0-.118-.008-.18-.014a3.133,3.133,0,0,0-.329-.021,1.1,1.1,0,0,0-.725.238c-.1.09-.215.179-.329.269a3.841,3.841,0,0,0-1.372,1.6,2,2,0,0,0,.092,1.6,2.505,2.505,0,0,0,1.549,1.215,5.579,5.579,0,0,0,1.625.17q3.879.008,7.742.006h5.948Zm-68.247-34.241c-2.568,0-3.394.837-3.4,3.441v27.07h26.759l.047-.662c.011-.142.024-.277.035-.407.026-.3.051-.576.051-.853q.005-12.623,0-25.244c0-2.468-.887-3.344-3.377-3.345l-9.6,0Zm43.987,26.828h26.736v-4.873h-26.736Zm-16.056-12.239c-.325,0-.651.021-.994.043-.161.011-.326.021-.5.03l-.677.034v4.94l65.678,0c2.559,0,2.993-1.516,3.025-2.419a2.343,2.343,0,0,0-.6-1.757,3.294,3.294,0,0,0-2.4-.869c-.088,0-18.6,0-18.6,0Q3129.541,695.849,3107.077,695.852Zm-44.81,0q-3.71,0-7.42.016a2.85,2.85,0,0,0-2.1.781,2.44,2.44,0,0,0-.641,1.827c.051,1.532,1.1,2.414,2.882,2.417q3.787.006,7.574.006,4.609,0,9.218-.006a4.473,4.473,0,0,0,.8-.093c.1-.019.2-.036.307-.051l.613-.088v-4.535l-.563-.12c-.086-.019-.16-.039-.227-.055a2.032,2.032,0,0,0-.535-.087S3064.54,695.853,3062.266,695.853Zm74.148-18.223q-5.309,0-10.618.018a2.458,2.458,0,0,0-2.7,2.649c-.029,2.958-.024,5.865-.019,8.943l0,4.311h26.869l0-4.261c0-3.148.009-6.122-.018-9.163a2.439,2.439,0,0,0-2.721-2.485Q3141.814,677.63,3136.414,677.63Z" transform="translate(0 -20.007)" fill="#0a3459"/>
    <path id="Trazado_225" data-name="Trazado 225" d="M3066.435,616.157h3.676c0,1.337-.052,2.625.027,3.906a2.493,2.493,0,0,0,.581,1.394c.78.884,1.663,1.677,2.444,2.446l-2.558,2.666c-1.237-1.236-2.478-2.426-3.649-3.682a2.084,2.084,0,0,1-.5-1.26C3066.4,619.836,3066.435,618.041,3066.435,616.157Z" transform="translate(-4.749 -3.012)" fill="#d72162"/>
    <g id="Grupo_113" data-name="Grupo 113" transform="translate(3050.558 605.653)">
      <path id="Trazado_226" data-name="Trazado 226" d="M3064.152,632.285a13.316,13.316,0,1,1,13.316-13.316A13.331,13.331,0,0,1,3064.152,632.285Zm0-23.779a10.463,10.463,0,1,0,10.463,10.463A10.475,10.475,0,0,0,3064.152,608.506Z" transform="translate(-3050.836 -605.653)" fill="#0a3459"/>
    </g>
    <g id="Grupo_114" data-name="Grupo 114" transform="translate(3151.357 639.842)">
      <path id="Trazado_227" data-name="Trazado 227" d="M3203.814,681.644c0-.526.02-.99-.006-1.451a1.1,1.1,0,0,1,.356-.908q5.4-5.379,10.781-10.775c.094-.095.2-.178.264-.233l-7.086-7.087c-.353.354-.765.75-1.153,1.169a.437.437,0,0,0-.034.354,8.767,8.767,0,0,1-.157,5.562,8.627,8.627,0,0,1-1.918,3.075c-.367.382-.656.394-1.031.023q-1.349-1.34-2.689-2.687c-.042-.042-.089-.079-.15-.133a4.109,4.109,0,0,1-5.736-5.759l-1.335-1.333q-.7-.7-1.4-1.4c-.475-.476-.484-.745.006-1.185a8.619,8.619,0,0,1,8.405-2.042.63.63,0,0,0,.727-.185c.68-.715,1.385-1.406,2.088-2.1a2.926,2.926,0,0,1,4.35.007q.57.567,1.137,1.138a2.936,2.936,0,0,1,.021,4.354c-.068.069-.134.141-.317.334a1.44,1.44,0,0,1,.362.193q3.508,3.5,7.005,7c.494.495.493.718,0,1.216q-5.5,5.506-11.013,11.008a.886.886,0,0,0-.3.767c.029.337.007.679.007,1.068h.427c1.376,0,2.753,0,4.129,0a4.1,4.1,0,0,1,4.24,4.24c0,.329.008.658,0,.987a.586.586,0,0,1-.619.62c-.085,0-.17,0-.256,0h-16.956c-.721,0-.9-.158-.87-.877a9.349,9.349,0,0,1,.2-2.094,3.979,3.979,0,0,1,3.811-2.873c1.437-.02,2.875,0,4.312-.006Zm.531-11.5a7.566,7.566,0,0,0-10.661-10.668Zm-8.08,16.158h16.329a2.963,2.963,0,0,0-3.09-3.487q-5.079,0-10.156.006a3.6,3.6,0,0,0-1.042.139A2.983,2.983,0,0,0,3196.265,686.3Zm10.105-25.01c.728-.729,1.442-1.425,2.135-2.141a1.742,1.742,0,0,0-.022-2.547q-.623-.643-1.264-1.267a1.751,1.751,0,0,0-2.6,0c-.634.623-1.259,1.256-1.886,1.886-.063.063-.117.137-.193.226A8.877,8.877,0,0,1,3206.371,661.291Zm-10.272,2.442a2.883,2.883,0,0,0,3.982,3.988Z" transform="translate(-3192.167 -653.59)" fill="#0a3459"/>
      <path id="Trazado_229" data-name="Trazado 229" d="M3206.135,663.332c-.151.17-.265.415-.43.456a.971.971,0,0,1-.66-.13c-.58-.345-1.121-.756-1.7-1.1a3.727,3.727,0,0,0-.863-.276c-.412-.118-.6-.389-.516-.741a.583.583,0,0,1,.776-.4,6.219,6.219,0,0,1,3.12,1.705A2.318,2.318,0,0,1,3206.135,663.332Z" transform="translate(-3194.97 -655.749)" fill="#d72162"/>
      <path id="Trazado_230" data-name="Trazado 230" d="M3199.813,661.513a.578.578,0,0,1-.562.593.583.583,0,0,1-.021-1.165A.573.573,0,0,1,3199.813,661.513Z" transform="translate(-3194.03 -655.698)" fill="#d72162"/>
      <path id="Trazado_231" data-name="Trazado 231" d="M3202.086,697.374c-.365,0-.731.006-1.1,0a.585.585,0,1,1,0-1.165q1.114-.012,2.228,0a.585.585,0,0,1,.636.566.6.6,0,0,1-.638.6h-1.133Z" transform="translate(-3194.515 -665.81)" fill="#d72162"/>
      <path id="Trazado_232" data-name="Trazado 232" d="M3207.494,697.374a.582.582,0,1,1,.583-.581A.588.588,0,0,1,3207.494,697.374Z" transform="translate(-3196.396 -665.812)" fill="#d72162"/>
    </g>
  </g>
</svg>
