<svg width="121" height="48" viewBox="0 0 121 48" fill="none" xmlns="http://www.w3.org/2000/svg">
<path d="M39.0991 47.6717H37.0879C37.0879 41.8313 41.6241 40.7772 45.6263 39.8461C50.1595 38.793 54.0732 37.8826 54.0732 31.3948H56.0844C56.0844 39.2715 50.5667 40.5536 46.1331 41.5844C42.2033 42.4984 39.0991 43.2193 39.0991 47.6717Z" fill="#0A3459"/>
<path d="M83.9418 47.6717H81.9306C81.9306 43.2193 78.8274 42.4984 74.8966 41.5844C70.4629 40.5536 64.9453 39.2715 64.9453 31.3948H66.9565C66.9565 37.8826 70.8702 38.793 75.4034 39.8461C79.4056 40.7772 83.9418 41.8313 83.9418 47.6717Z" fill="#0A3459"/>
<path d="M60.5143 33.6726C54.1761 33.6726 48.751 28.95 47.0938 22.0949C45.2546 21.8265 43.877 20.0712 43.877 17.8787C43.877 15.6853 45.2546 13.93 47.0938 13.6606C47.1682 13.3563 47.2497 13.0546 47.3392 12.7583L49.282 13.2234C49.1351 13.7109 49.0095 14.2146 48.9099 14.721L48.7359 15.6027L47.5695 15.4204C46.6825 15.4213 45.8881 16.5696 45.8881 17.8787C45.8881 19.1878 46.6825 20.3352 47.5876 20.3352L48.737 20.1583L48.9099 21.0364C50.1498 27.3177 55.0299 31.8769 60.5143 31.8769C65.9977 31.8769 70.8778 27.3177 72.1187 21.0364L72.2907 20.1583L73.3767 20.3235C74.3541 20.3235 75.1395 19.1805 75.1395 17.8787C75.1395 16.5696 74.3451 15.4213 73.44 15.4213L73.2812 15.45L73.1082 14.5648L72.9956 13.6705C73.1414 13.6454 73.2882 13.6256 73.44 13.6256C75.5206 13.6256 77.1506 15.4931 77.1506 17.8787C77.1506 20.0712 75.773 21.8265 73.9338 22.0949C72.2766 28.95 66.8515 33.6726 60.5143 33.6726Z" fill="#0A3459"/>
<path d="M48.7164 14.1769L47.8626 13.7926C46.7183 13.279 45.6614 11.7329 45.2924 10.0333C44.8148 7.83182 45.5186 5.63839 47.2754 3.85795C50.0206 1.07466 52.3304 0.785567 57.293 0.785567C57.3231 0.785567 57.3503 0.782851 57.3815 0.785567C58.7601 0.785567 59.7265 0.567397 60.6627 0.35639C61.9438 0.0672593 63.1535 -0.204767 64.8861 0.219008C67.7802 0.92652 69.0231 4.2126 69.2745 5.85116L69.3338 6.23816L69.0583 6.54072C66.6741 9.15703 63.0248 9.26388 59.4962 9.368C57.289 9.43265 55.2024 9.49461 53.4919 10.142C51.1519 11.0272 50.3072 11.6737 49.189 13.4334L48.7164 14.1769ZM57.2849 2.58126C52.4461 2.58126 50.9649 2.83353 48.7837 5.04581C47.0723 6.77952 47.0149 8.52944 47.2673 9.69215C47.4413 10.4921 47.7842 11.1359 48.115 11.5731C49.2252 10.1258 50.4259 9.35184 52.7065 8.48813C54.7629 7.7106 57.1351 7.64055 59.4298 7.57323C62.4808 7.48344 65.3708 7.39815 67.203 5.70482C66.9285 4.56186 66.0707 2.37025 64.3562 1.95095C63.1314 1.65287 62.3028 1.83784 61.1554 2.09729C60.1991 2.31279 59.0095 2.58126 57.3815 2.58126C57.3583 2.58214 57.3181 2.58126 57.2849 2.58126Z" fill="#0A3459"/>
<path d="M72.5056 16.3362L71.861 15.4393C70.9157 14.1248 70.3254 13.2099 69.7553 12.3247C69.4647 11.8749 69.175 11.4251 68.8392 10.9241C67.7632 9.31689 67.2715 7.23124 67.2715 5.97334V5.36911L67.9 5.14194C68.8513 4.79807 69.8649 4.67509 70.8353 4.7837C73.0425 5.03509 75.0225 6.51027 75.7656 8.45228C76.6606 10.7939 75.6832 13.7397 73.3854 15.6171L72.5056 16.3362ZM69.3299 6.61799C69.4647 7.63883 69.888 8.99186 70.5658 10.002C70.9077 10.5128 71.2023 10.9698 71.498 11.4286C71.8992 12.0499 72.3095 12.6865 72.8475 13.4685C73.851 12.2385 74.4373 10.5371 73.8621 9.03229C73.3704 7.7439 72.0199 6.72931 70.5799 6.56504C70.1666 6.51744 69.7482 6.5354 69.3299 6.61799Z" fill="#0A3459"/>
<path d="M60.5148 46.2325C56.6624 46.2325 53.172 45.2063 50.1372 43.1816C49.0883 42.4822 48.127 41.6652 47.2793 40.7522L48.8269 39.6064C49.574 40.4091 50.4187 41.1283 51.3409 41.7433C54.0208 43.5309 57.1068 44.4369 60.5148 44.4369C63.9217 44.4369 67.0088 43.5309 69.6877 41.7433C70.6098 41.1283 71.4545 40.4091 72.2016 39.6064L73.7493 40.7522C72.9015 41.6652 71.9402 42.4822 70.8914 43.1816C67.8565 45.2063 64.3661 46.2325 60.5148 46.2325Z" fill="#D72162"/>
<path d="M85.4922 47.6717H83.9414C83.9414 43.1681 87.4392 42.3553 90.5253 41.6374C94.0208 40.8253 97.0387 40.1233 97.0387 35.1206H98.5895C98.5895 41.1943 94.3349 42.183 90.9161 42.9777C87.8859 43.6825 85.4922 44.2384 85.4922 47.6717Z" fill="#0A3459"/>
<path d="M120.07 47.6717H118.519C118.519 44.2384 116.126 43.6825 113.095 42.9777C109.676 42.183 105.422 41.1943 105.422 35.1206H106.973C106.973 40.1233 109.991 40.8253 113.486 41.6374C116.572 42.3553 120.07 43.1681 120.07 47.6717Z" fill="#0A3459"/>
<path d="M102.007 36.8771C97.1194 36.8771 92.9361 33.2355 91.6582 27.9497C90.2401 27.7427 89.1777 26.3892 89.1777 24.6985C89.1777 23.0072 90.2401 21.6537 91.6582 21.446C91.7156 21.2113 91.7784 20.9787 91.8474 20.7502L93.3455 21.1089C93.2323 21.4848 93.1354 21.8732 93.0586 22.2637L92.9245 22.9435L92.025 22.803C91.3411 22.8037 90.7285 23.6891 90.7285 24.6985C90.7285 25.708 91.3411 26.5927 92.039 26.5927L92.9252 26.4563L93.0586 27.1334C94.0147 31.9769 97.7777 35.4925 102.007 35.4925C106.235 35.4925 109.998 31.9769 110.955 27.1334L111.087 26.4563L111.925 26.5837C112.678 26.5837 113.284 25.7024 113.284 24.6985C113.284 23.6891 112.672 22.8037 111.974 22.8037L111.851 22.8258L111.718 22.1432L111.631 21.4536C111.743 21.4342 111.857 21.419 111.974 21.419C113.578 21.419 114.835 22.8591 114.835 24.6985C114.835 26.3892 113.773 27.7427 112.354 27.9497C111.077 33.2355 106.893 36.8771 102.007 36.8771Z" fill="#0A3459"/>
<path d="M92.907 21.844L92.2487 21.5477C91.3663 21.1517 90.5514 19.9595 90.2668 18.649C89.8985 16.9514 90.4413 15.2601 91.7959 13.8872C93.9127 11.741 95.6938 11.5181 99.5204 11.5181C99.5437 11.5181 99.5646 11.516 99.5886 11.5181C100.652 11.5181 101.397 11.3499 102.119 11.1872C103.107 10.9642 104.039 10.7545 105.375 11.0812C107.607 11.6268 108.565 14.1607 108.759 15.4242L108.805 15.7226L108.593 15.9559C106.754 17.9733 103.94 18.0557 101.219 18.136C99.5173 18.1858 97.9083 18.2336 96.5894 18.7328C94.785 19.4154 94.1337 19.9139 93.2715 21.2708L92.907 21.844ZM99.5142 12.9027C95.783 12.9027 94.6408 13.0973 92.959 14.8031C91.6392 16.14 91.595 17.4894 91.7897 18.3859C91.9238 19.0027 92.1882 19.4991 92.4433 19.8363C93.2994 18.7203 94.2252 18.1235 95.9838 17.4575C97.5695 16.8579 99.3987 16.8039 101.168 16.752C103.521 16.6828 105.749 16.617 107.162 15.3113C106.95 14.43 106.289 12.74 104.967 12.4167C104.022 12.1869 103.383 12.3295 102.499 12.5296C101.761 12.6957 100.844 12.9027 99.5886 12.9027C99.5708 12.9034 99.5398 12.9027 99.5142 12.9027Z" fill="#0A3459"/>
<path d="M111.251 23.5089L110.754 22.8173C110.025 21.8038 109.57 21.0983 109.13 20.4156C108.906 20.0688 108.683 19.722 108.424 19.3357C107.594 18.0964 107.215 16.4881 107.215 15.5182V15.0523L107.699 14.8771C108.433 14.6119 109.215 14.5171 109.963 14.6009C111.665 14.7947 113.192 15.9322 113.765 17.4297C114.455 19.2353 113.701 21.5068 111.929 22.9544L111.251 23.5089ZM108.802 16.0153C108.906 16.8024 109.232 17.8458 109.755 18.6246C110.019 19.0186 110.246 19.3709 110.474 19.7247C110.783 20.2038 111.1 20.6947 111.514 21.2977C112.288 20.3492 112.74 19.0372 112.297 17.8769C111.918 16.8834 110.876 16.1011 109.766 15.9744C109.447 15.9377 109.125 15.9516 108.802 16.0153Z" fill="#0A3459"/>
<path d="M102.007 46.562C99.036 46.562 96.3446 45.7707 94.0045 44.2095C93.1957 43.6701 92.4544 43.0402 91.8008 42.3361L92.9941 41.4526C93.5702 42.0716 94.2216 42.6261 94.9326 43.1004C96.9991 44.4788 99.3788 45.1773 102.007 45.1773C104.634 45.1773 107.014 44.4788 109.08 43.1004C109.791 42.6261 110.442 42.0716 111.018 41.4526L112.212 42.3361C111.558 43.0402 110.817 43.6701 110.008 44.2095C107.668 45.7707 104.976 46.562 102.007 46.562Z" fill="#D72162"/>
<path d="M2.5098 47.6717H0.958984C0.958984 43.1681 4.45681 42.3553 7.54288 41.6374C11.0384 40.8253 14.0562 40.1233 14.0562 35.1206H15.607C15.607 41.1943 11.3524 42.183 7.93369 42.9777C4.90343 43.6825 2.5098 44.2384 2.5098 47.6717Z" fill="#0A3459"/>
<path d="M37.0875 47.6717H35.5367C35.5367 44.2384 33.1438 43.6825 30.1128 42.9777C26.6941 42.183 22.4395 41.1943 22.4395 35.1206H23.9903C23.9903 40.1233 27.0081 40.8253 30.5036 41.6374C33.5897 42.3553 37.0875 43.1681 37.0875 47.6717Z" fill="#0A3459"/>
<path d="M19.0243 36.8771C14.1369 36.8771 9.95369 33.2355 8.67581 27.9497C7.25763 27.7427 6.19531 26.3892 6.19531 24.6985C6.19531 23.0072 7.25763 21.6537 8.67581 21.446C8.73322 21.2113 8.79601 20.9787 8.86501 20.7502L10.3631 21.1089C10.2499 21.4848 10.153 21.8732 10.0762 22.2637L9.94206 22.9435L9.0426 22.803C8.35869 22.8037 7.74612 23.6891 7.74612 24.6985C7.74612 25.708 8.35869 26.5927 9.05653 26.5927L9.94283 26.4563L10.0762 27.1334C11.0323 31.9769 14.7953 35.4925 19.0243 35.4925C23.2525 35.4925 27.0155 31.9769 27.9724 27.1334L28.105 26.4563L28.9424 26.5837C29.6961 26.5837 30.3017 25.7024 30.3017 24.6985C30.3017 23.6891 29.6891 22.8037 28.9912 22.8037L28.8687 22.8258L28.7354 22.1432L28.6485 21.4536C28.761 21.4342 28.8742 21.419 28.9912 21.419C30.5956 21.419 31.8525 22.8591 31.8525 24.6985C31.8525 26.3892 30.7902 27.7427 29.372 27.9497C28.0941 33.2355 23.9108 36.8771 19.0243 36.8771Z" fill="#0A3459"/>
<path d="M9.9246 21.844L9.26629 21.5477C8.38389 21.1517 7.56895 19.9595 7.28437 18.649C6.91607 16.9514 7.45885 15.2601 8.81347 13.8872C10.9303 11.741 12.7114 11.5181 16.538 11.5181C16.5612 11.5181 16.5822 11.516 16.6062 11.5181C17.6693 11.5181 18.4144 11.3499 19.1363 11.1872C20.1242 10.9642 21.057 10.7545 22.393 11.0812C24.6246 11.6268 25.583 14.1607 25.7768 15.4242L25.8226 15.7226L25.6101 15.9559C23.7717 17.9733 20.9578 18.0557 18.2369 18.136C16.5349 18.1858 14.9259 18.2336 13.607 18.7328C11.8026 19.4154 11.1513 19.9139 10.289 21.2708L9.9246 21.844ZM16.5318 12.9027C12.8006 12.9027 11.6584 13.0973 9.97655 14.8031C8.65683 16.14 8.61262 17.4894 8.80726 18.3859C8.9414 19.0027 9.20582 19.4991 9.46093 19.8363C10.317 18.7203 11.2428 18.1235 13.0014 17.4575C14.5871 16.8579 16.4162 16.8039 18.1857 16.752C20.5383 16.6828 22.7668 16.617 24.1795 15.3113C23.9678 14.43 23.3064 12.74 21.9844 12.4167C21.0399 12.1869 20.401 12.3295 19.5163 12.5296C18.7789 12.6957 17.8616 12.9027 16.6062 12.9027C16.5884 12.9034 16.5574 12.9027 16.5318 12.9027Z" fill="#0A3459"/>
<path d="M28.2684 23.5089L27.7713 22.8173C27.0425 21.8038 26.5873 21.0983 26.1477 20.4156C25.9236 20.0688 25.7002 19.722 25.4413 19.3357C24.6116 18.0964 24.2324 16.4881 24.2324 15.5182V15.0523L24.7171 14.8771C25.4506 14.6119 26.2322 14.5171 26.9805 14.6009C28.6824 14.7947 30.2092 15.9322 30.7822 17.4297C31.4723 19.2353 30.7186 21.5068 28.9468 22.9544L28.2684 23.5089ZM25.8196 16.0153C25.9236 16.8024 26.25 17.8458 26.7726 18.6246C27.0363 19.0186 27.2635 19.3709 27.4914 19.7247C27.8008 20.2038 28.1172 20.6947 28.532 21.2977C29.3059 20.3492 29.7579 19.0372 29.3144 17.8769C28.9352 16.8834 27.8939 16.1011 26.7835 15.9744C26.4648 15.9377 26.1422 15.9516 25.8196 16.0153Z" fill="#0A3459"/>
<path d="M19.0241 46.562C16.0536 46.562 13.3622 45.7707 11.0221 44.2095C10.2133 43.6701 9.47202 43.0402 8.81836 42.3361L10.0117 41.4526C10.5878 42.0716 11.2391 42.6261 11.9502 43.1004C14.0167 44.4788 16.3963 45.1773 19.0241 45.1773C21.6512 45.1773 24.0317 44.4788 26.0973 43.1004C26.8084 42.6261 27.4597 42.0716 28.0358 41.4526L29.2292 42.3361C28.5755 43.0402 27.8342 43.6701 27.0255 44.2095C24.6853 45.7707 21.9939 46.562 19.0241 46.562Z" fill="#D72162"/>
</svg>
