<svg width="52" height="54" viewBox="0 0 52 54" fill="none" xmlns="http://www.w3.org/2000/svg">
<path d="M2.31747 53.6028H0.0957031C0.0957031 47.1508 5.10683 45.9864 9.52807 44.9578C14.5359 43.7944 18.8594 42.7887 18.8594 35.6216H21.0811C21.0811 44.323 14.9858 45.7394 10.088 46.878C5.74669 47.8877 2.31747 48.6842 2.31747 53.6028Z" fill="#0A3459"/>
<path d="M51.8545 53.6028H49.6328C49.6328 48.6842 46.2047 47.8877 41.8623 46.878C36.9645 45.7394 30.8691 44.323 30.8691 35.6216H33.0909C33.0909 42.7887 37.4144 43.7944 42.4222 44.9578C46.8434 45.9864 51.8545 47.1508 51.8545 53.6028Z" fill="#0A3459"/>
<path d="M25.975 38.138C18.9732 38.138 12.9801 32.9209 11.1494 25.3481C9.11761 25.0516 7.5957 23.1125 7.5957 20.6904C7.5957 18.2673 9.11761 16.3283 11.1494 16.0307C11.2316 15.6945 11.3216 15.3612 11.4204 15.0339L13.5666 15.5477C13.4044 16.0863 13.2656 16.6427 13.1556 17.2021L12.9634 18.1761L11.6749 17.9748C10.695 17.9758 9.81746 19.2443 9.81746 20.6904C9.81746 22.1366 10.695 23.4041 11.6948 23.4041L12.9646 23.2087L13.1556 24.1788C14.5253 31.1177 19.9164 36.1543 25.975 36.1543C32.0326 36.1543 37.4236 31.1177 38.7944 24.1788L38.9844 23.2087L40.1841 23.3912C41.2639 23.3912 42.1315 22.1286 42.1315 20.6904C42.1315 19.2443 41.2539 17.9758 40.2541 17.9758L40.0786 18.0075L39.8875 17.0295L39.7631 16.0416C39.9242 16.0139 40.0864 15.9921 40.2541 15.9921C42.5525 15.9921 44.3532 18.0551 44.3532 20.6904C44.3532 23.1125 42.8314 25.0516 40.7996 25.3481C38.9689 32.9209 32.9757 38.138 25.975 38.138Z" fill="#0A3459"/>
<path d="M12.9398 16.6011L11.9966 16.1766C10.7325 15.6093 9.56496 13.9013 9.15726 12.0237C8.62962 9.59176 9.40723 7.16868 11.3479 5.20182C14.3805 2.12712 16.9322 1.80775 22.4144 1.80775C22.4477 1.80775 22.4777 1.80476 22.5121 1.80775C24.0351 1.80775 25.1027 1.56674 26.1369 1.33364C27.5521 1.01425 28.8885 0.713731 30.8025 1.18188C33.9996 1.96346 35.3726 5.59361 35.6504 7.40373L35.7159 7.83125L35.4115 8.16548C32.7777 11.0557 28.7463 11.1738 24.8483 11.2888C22.4099 11.3602 20.1049 11.4287 18.2153 12.1438C15.6303 13.1217 14.6972 13.8359 13.4619 15.7799L12.9398 16.6011ZM22.4055 3.79145C17.06 3.79145 15.4237 4.07015 13.0142 6.51405C11.1235 8.42929 11.0602 10.3624 11.339 11.6469C11.5312 12.5306 11.91 13.2417 12.2755 13.7248C13.5019 12.1259 14.8282 11.2709 17.3477 10.3168C19.6194 9.45786 22.24 9.38049 24.7749 9.30609C28.1453 9.20692 31.338 9.11269 33.362 7.24207C33.0587 5.97944 32.1111 3.55835 30.2171 3.09515C28.8641 2.76586 27.9487 2.9702 26.6812 3.25682C25.6248 3.49488 24.3106 3.79145 22.5121 3.79145C22.4866 3.79244 22.4421 3.79145 22.4055 3.79145Z" fill="#0A3459"/>
<path d="M39.2215 18.9866L38.5095 17.9957C37.4653 16.5436 36.8132 15.533 36.1833 14.555C35.8623 14.0581 35.5423 13.5612 35.1713 13.0077C33.9827 11.2323 33.4395 8.92828 33.4395 7.53868V6.87118L34.1338 6.62022C35.1846 6.24036 36.3044 6.1045 37.3764 6.22449C39.8147 6.5022 42.002 8.13183 42.823 10.2772C43.8116 12.8639 42.7319 16.1182 40.1935 18.1921L39.2215 18.9866ZM35.7134 8.25082C35.8623 9.37854 36.3299 10.8733 37.0787 11.9891C37.4564 12.5535 37.7818 13.0583 38.1084 13.5651C38.5517 14.2515 39.0049 14.9547 39.5993 15.8186C40.7079 14.4598 41.3555 12.5802 40.7201 10.9179C40.1769 9.49461 38.685 8.37379 37.0942 8.19232C36.6377 8.13974 36.1755 8.1596 35.7134 8.25082Z" fill="#0A3459"/>
<path d="M25.9748 52.013C21.7191 52.013 17.8632 50.8793 14.5106 48.6427C13.3519 47.87 12.29 46.9675 11.3535 45.9588L13.0631 44.6931C13.8885 45.5799 14.8216 46.3743 15.8403 47.0537C18.8008 49.0285 22.21 50.0293 25.9748 50.0293C29.7384 50.0293 33.1488 49.0285 36.1081 47.0537C37.1268 46.3743 38.0599 45.5799 38.8853 44.6931L40.5949 45.9588C39.6584 46.9675 38.5964 47.87 37.4378 48.6427C34.0852 50.8793 30.2294 52.013 25.9748 52.013Z" fill="#D72162"/>
</svg>
