<svg xmlns="http://www.w3.org/2000/svg" width="106.478" height="108.713" viewBox="0 0 106.478 108.713">
  <g id="Oficina_Privada" data-name="Oficina Privada" transform="translate(-139.242 -1040.119)">
    <path id="Trazado_139" data-name="Trazado 139" d="M1522.625,142.558c-1.6,0-1.725-.128-1.725-1.661v-5.174c0-1.214.256-1.405,1.469-1.405h4.344l-.319-.894c-.894-2.172-.766-4.407-.7-6.771a31.082,31.082,0,0,0,0-3.449c-.064-.7,0-1.341,0-2.108a.98.98,0,0,1,.958-1.086.924.924,0,0,1,.958,1.022v6.834h52.057V100.976c0-2.108-.766-2.874-2.81-2.874h-46.372c-2.044,0-2.811.766-2.811,2.81v5.429c0,1.214-.575,1.277-.894,1.277h0c-.319,0-.958,0-.958-1.277V100.4a3.986,3.986,0,0,1,3.96-4.152h.7a4.841,4.841,0,0,0,4.535-2.491c2.235-3.321,5.621-5.174,10.156-5.493l1.277-.064V81.367a1.494,1.494,0,0,0-.447-.958,10.532,10.532,0,0,1-2.619-5.493l-.064-.447-.83-.128c-.255-.064-.447-.064-.7-.128a3.938,3.938,0,0,1-3-2.619,4.218,4.218,0,0,1,.7-4.024,3.245,3.245,0,0,0,.639-1.852c.064-.894.064-1.788.064-2.683a33.408,33.408,0,0,1,.192-4.343A11.787,11.787,0,0,1,1551.815,48.6h1.533a26.341,26.341,0,0,1,4.918.383,11.828,11.828,0,0,1,9.134,11.306v5.493a2.514,2.514,0,0,0,.32,1.277c1.15,1.661,1.533,3.385.958,4.791a4.4,4.4,0,0,1-3.641,2.363l-.319.064-.128.319a17.333,17.333,0,0,0-.7,1.6,22.21,22.21,0,0,1-1.661,3.258,5.214,5.214,0,0,0-1.086,3.513c.064,1.022,0,2.044,0,3.066v1.98l.575.064c.319.064.639.064.958.128a16.185,16.185,0,0,1,1.852.256,13.312,13.312,0,0,1,9.07,6.579,1.9,1.9,0,0,0,1.661,1.086h.192c.255,0,.575-.064.958-.064h1.277a4.062,4.062,0,0,1,4.088,4.024v30.4a9.63,9.63,0,0,1-.319,1.788c-.064.319-.192.639-.256.958l-.192.766h6.962l-.319-.894-.383-.958a9.25,9.25,0,0,1-.7-1.98,23.186,23.186,0,0,1-.192-3.641V119.5c0-1.086.255-1.341,1.341-1.341h14.755c1.469,0,1.6.128,1.661,1.661v1.533h5.046c1.022,0,1.277.255,1.341,1.277v2.747a4.172,4.172,0,0,1-4.216,4.216h-1.916l-1.98,4.28.894.064h.192c.192,0,.383.064.639.064h9.709c1.15,0,1.405.255,1.405,1.405v5.174c0,1.533-.128,1.725-1.661,1.725h-44.775Zm.256-1.98h90V136.3h-90ZM1587.84,121.1v2.555c0,1.916,0,3.832.064,5.749a5.132,5.132,0,0,0,5.11,4.918c.639,0,1.214.064,1.853.064a17.944,17.944,0,0,0,1.852-.064,5.319,5.319,0,0,0,5.11-4.918c.064-1.916.064-3.9.064-5.749v-3.194h-13.925v.639Zm-60.233,9.453a3.64,3.64,0,0,0,3.96,3.769h44.648a3.685,3.685,0,0,0,3.257-3.769v-.639h-51.865Zm76.073-2.683.575.064a7.333,7.333,0,0,0,1.15.064h0a2.624,2.624,0,0,0,2.236-.83c.511-.639.639-1.6.319-3.066l-.128-.511h-4.215v4.28Zm-58.444-37.622a4.525,4.525,0,0,0-.894.064,8.485,8.485,0,0,0-1.916.383,11.526,11.526,0,0,0-6.324,4.535l-.7,1.022h36.216l-.575-.958c-2.108-3.449-6.323-5.046-9.517-5.046h-.766a1.965,1.965,0,0,0-.958.511,6.768,6.768,0,0,1-4.918,2.555,15,15,0,0,1-1.661.064,6.7,6.7,0,0,1-5.174-1.916A3.681,3.681,0,0,0,1545.236,90.246Zm2.938-5.557V87.18a3.684,3.684,0,0,0,2.683,3.832,7.809,7.809,0,0,0,5.557,0,3.431,3.431,0,0,0,2.491-3.066c.064-1.022.064-2.044.064-3.066V82.517l-.894.383a11.507,11.507,0,0,1-4.471.958,10.567,10.567,0,0,1-4.471-1.022l-.894-.383Zm-3.194-14.372V73.7a8.507,8.507,0,0,0,7.793,8.3c.256,0,.511.064.766.064a8.346,8.346,0,0,0,8.367-7.026,31.357,31.357,0,0,0,.192-4.918v-1.98a1.409,1.409,0,0,0-.383-.958c-.766-.766-1.533-1.6-2.3-2.363l-1.15-1.15-.447.383a17.566,17.566,0,0,1-11.05,4.088,6.939,6.939,0,0,1-1.15-.064l-.7-.064A20.715,20.715,0,0,1,1544.98,70.317Zm19.1,2.236.766-.128c1.405-.255,2.172-1.086,2.044-2.236a2.17,2.17,0,0,0-2.108-2.108l-.7-.064ZM1542.3,68.081c-1.916.447-2.108,1.661-2.044,2.3a1.99,1.99,0,0,0,2.172,1.916h.639V67.826Zm16.032-6.707a1.2,1.2,0,0,1,.83.447l1.533,1.533,2.108,2.108a3.238,3.238,0,0,0,1.022.575,3.764,3.764,0,0,1,.511.255l.958.447v-3a38.1,38.1,0,0,0-.064-3.832,9.754,9.754,0,0,0-8.431-9.134,26.937,26.937,0,0,0-3.385-.192c-.7,0-1.469,0-2.3.064a9.749,9.749,0,0,0-9.134,8.3,34.5,34.5,0,0,0-.128,4.471c0,.7.064,1.341.064,2.044V66.1h3.258c.383,0,.766.064,1.15.064a16.64,16.64,0,0,0,11.178-4.407A1.77,1.77,0,0,1,1558.33,61.375Z" transform="translate(-1381.658 1006.274)" fill="#0a3459"/>
    <path id="Trazado_140" data-name="Trazado 140" d="M1574.117,146.926a4.759,4.759,0,1,1-4.791-4.727A4.73,4.73,0,0,1,1574.117,146.926Zm-3.194,0a1.624,1.624,0,0,0-1.533-1.661,1.6,1.6,0,0,0-.128,3.194A1.511,1.511,0,0,0,1570.923,146.926Z" transform="translate(-1397.446 972.461)" fill="#d72162"/>
    <path id="Trazado_141" data-name="Trazado 141" d="M1629.184,141.927v-3.066a1.512,1.512,0,0,1,1.533-1.661,1.56,1.56,0,0,1,1.6,1.661v6.324a1.442,1.442,0,0,1-1.533,1.533,1.476,1.476,0,0,1-1.6-1.6C1629.12,144.034,1629.184,142.949,1629.184,141.927Z" transform="translate(-1420.767 974.266)" fill="#d72162"/>
    <path id="Trazado_142" data-name="Trazado 142" d="M1639.084,141.891v-3.066a1.579,1.579,0,0,1,1.6-1.725,1.533,1.533,0,0,1,1.533,1.725v6.26a1.476,1.476,0,0,1-1.6,1.6,1.46,1.46,0,0,1-1.533-1.6C1639.02,144,1639.084,142.976,1639.084,141.891Z" transform="translate(-1424.344 974.302)" fill="#d72162"/>
    <path id="Trazado_143" data-name="Trazado 143" d="M1530.53,149.427c0,1.725-.447,2.427-1.6,2.363-1.086,0-1.533-.7-1.533-2.363s.511-2.427,1.6-2.427C1530.083,147.064,1530.53,147.766,1530.53,149.427Z" transform="translate(-1384.007 970.726)" fill="#d72162"/>
    <path id="Trazado_144" data-name="Trazado 144" d="M1665.8,36.1h3.322c0,1.214-.064,2.363,0,3.513a2.466,2.466,0,0,0,.511,1.277c.7.766,1.469,1.533,2.172,2.172-.766.83-1.533,1.6-2.3,2.363-1.086-1.086-2.236-2.172-3.258-3.321a1.836,1.836,0,0,1-.447-1.15C1665.8,39.358,1665.8,37.761,1665.8,36.1Z" transform="translate(-1434.005 1010.79)" fill="#d72162"/>
    <g id="Grupo_90" data-name="Grupo 90" transform="translate(221.83 1040.119)">
      <path id="Trazado_145" data-name="Trazado 145" d="M1662.144,49.389a11.944,11.944,0,1,1,11.944-11.944A11.967,11.967,0,0,1,1662.144,49.389Zm0-21.27a9.389,9.389,0,1,0,9.389,9.389A9.4,9.4,0,0,0,1662.144,28.119Z" transform="translate(-1650.2 -25.5)" fill="#0a3459"/>
    </g>
  </g>
</svg>
