<svg xmlns="http://www.w3.org/2000/svg" width="114.188" height="117.001" viewBox="0 0 114.188 117.001">
  <g id="Sala_de_Reuniones" data-name="Sala de Reuniones" transform="translate(-3732.398 -605.864)">
    <path id="Trazado_175" data-name="Trazado 175" d="M3800.36,648.52h-14.544c0,1.2,0,2.36,0,3.522,0,1.044-.467,1.64-1.273,1.663-.836.023-1.338-.6-1.339-1.677,0-4.928.012-9.856-.014-14.784a1.593,1.593,0,0,1,1.072-1.624c3.926-1.81,7.838-3.646,11.757-5.47.6-.281.982-.676.823-1.4a1.232,1.232,0,0,0-1.888-.949c-3.876,1.787-7.738,3.606-11.625,5.369a3.033,3.033,0,0,1-1.626.239,24.007,24.007,0,0,0-11.525.841,3.738,3.738,0,0,0-2.645,3.466c-.034,4.546-.02,9.093-.01,13.639a1.147,1.147,0,0,0,1.278,1.258,1.165,1.165,0,0,0,1.323-1.3c.012-3.784.005-7.569.006-11.354a4.327,4.327,0,0,1,.026-.814,1.268,1.268,0,0,1,1.24-1.1,1.287,1.287,0,0,1,1.32,1.1,5.769,5.769,0,0,1,.027.9q0,13.886,0,27.77a1.869,1.869,0,0,0,2.336,2.073,1.729,1.729,0,0,0,1.58-1.931c.01-3.485,0-6.97,0-10.454,0-1.933-.005-3.866,0-5.8,0-1.012.522-1.611,1.344-1.586.789.024,1.265.6,1.267,1.582q.006,8.086,0,16.172a1.818,1.818,0,0,0,2.147,2.033,1.723,1.723,0,0,0,1.765-1.841c.022-1.551.006-3.1.008-4.655,0-1.241.45-1.867,1.327-1.853s1.287.626,1.287,1.893c0,1.443-.016,2.886,0,4.328a4.22,4.22,0,0,1-2.357,4.228,4.767,4.767,0,0,1-5.1-.391c-.112-.077-.219-.16-.378-.277a5.152,5.152,0,0,1-3.521,1.193,4.354,4.354,0,0,1-4.333-4.481c-.01-4,0-8,0-12.006V655.2c-.663,0-1.257.046-1.842-.008a3.639,3.639,0,0,1-3.379-3.651q-.032-6.9,0-13.8a6.479,6.479,0,0,1,4.713-6.09c.96-.273,1.929-.514,3-.8-2.026-2.264-2.864-4.812-1.917-7.705a7.767,7.767,0,0,1,5.963-5.292c0-1.18,0-2.393,0-3.606a3.952,3.952,0,0,1,4.3-4.322h21.153c.135-1.063-.319-2.628,1.422-2.563,1.557.058,1.145,1.483,1.267,2.563h.971q10.129,0,20.26,0a3.942,3.942,0,0,1,4.221,4.241q0,7.065,0,14.13a4.076,4.076,0,0,1-.02.734,1.3,1.3,0,0,1-2.573.011,3.959,3.959,0,0,1-.021-.733q0-6.984,0-13.967c0-1.392-.408-1.8-1.794-1.8q-22.384,0-44.769,0c-1.394,0-1.8.406-1.8,1.791,0,1.167,0,2.335,0,3.487,5.424,1.3,8.149,7.1,4.9,12.08,1.543-.713,2.966-1.363,4.382-2.024q2.623-1.226,5.238-2.468a3.937,3.937,0,1,1,3.373,7.113c-3.35,1.565-6.681,3.174-10.07,4.648a1.859,1.859,0,0,0-1.316,2.105c.093,2.167.028,4.34.028,6.595h39.917c1.549,0,1.913-.367,1.914-1.927,0-1.443-.006-2.886,0-4.329.006-.973.487-1.558,1.272-1.578.814-.022,1.333.586,1.338,1.6.008,1.579.005,3.158,0,4.737a3.931,3.931,0,0,1-4.1,4.115q-11.111,0-22.221,0h-.962v2.174c0,2.886.016,5.772-.013,8.658a1.547,1.547,0,0,0,.609,1.315q5.379,4.642,10.725,9.325c.164.143.337.278.486.436a1.28,1.28,0,0,1,.086,1.834,1.264,1.264,0,0,1-1.831.09c-.923-.763-1.812-1.566-2.715-2.353q-3.356-2.925-6.712-5.849c-.159-.139-.332-.261-.637-.5,0,1.341.021,2.549-.006,3.756a1.291,1.291,0,0,1-1.629,1.328,1.333,1.333,0,0,1-.979-1.43c.008-1.162,0-2.324,0-3.639-.354.285-.6.473-.838.678q-4.5,3.912-8.993,7.831a1.37,1.37,0,0,1-1.84.271,1.282,1.282,0,0,1,.028-2.15c2.083-1.836,4.184-3.652,6.278-5.477,1.642-1.431,3.289-2.857,4.916-4.3a1.168,1.168,0,0,0,.429-.713C3800.369,656.04,3800.36,652.314,3800.36,648.52Zm-22.395-18.139a5.033,5.033,0,0,0,5.043-4.929,5.037,5.037,0,0,0-10.073-.1A5.044,5.044,0,0,0,3777.966,630.381Z" transform="translate(-12.121 -0.56)" fill="#0a3459"/>
    <path id="Trazado_176" data-name="Trazado 176" d="M3818.26,626.573q-5.923,0-11.846,0a4.025,4.025,0,0,1-.733-.02,1.3,1.3,0,0,1,0-2.572,4.022,4.022,0,0,1,.733-.02H3830.1a4.09,4.09,0,0,1,.734.019,1.3,1.3,0,0,1,0,2.572,3.971,3.971,0,0,1-.734.021Q3824.182,626.574,3818.26,626.573Z" transform="translate(-26.916 -6.748)" fill="#d72162"/>
    <path id="Trazado_177" data-name="Trazado 177" d="M3831.522,651.588q-4.772,0-9.544,0a3.3,3.3,0,0,1-.731-.03,1.3,1.3,0,0,1,.036-2.557,4.226,4.226,0,0,1,.813-.024q9.5,0,19.008,0c.19,0,.381-.008.571,0a1.305,1.305,0,1,1-.036,2.606c-.353.015-.707,0-1.061,0Z" transform="translate(-32.746 -16.079)" fill="#0a3459"/>
    <path id="Trazado_178" data-name="Trazado 178" d="M3832.848,634.911q-4.488,0-8.976,0a4.254,4.254,0,0,1-.733-.018,1.3,1.3,0,0,1,.034-2.58c.4-.039.815-.015,1.224-.015h17.3c.217,0,.436-.008.652,0a1.3,1.3,0,1,1-.034,2.6c-2.176.018-4.352.007-6.528.007Z" transform="translate(-33.421 -9.858)" fill="#0a3459"/>
    <path id="Trazado_179" data-name="Trazado 179" d="M3834.458,640.639q4.243,0,8.487,0c1.033,0,1.63.481,1.638,1.293s-.591,1.317-1.615,1.317q-8.528.007-17.057,0c-1.028,0-1.605-.5-1.588-1.335.017-.8.583-1.272,1.565-1.275C3828.745,640.635,3831.6,640.639,3834.458,640.639Z" transform="translate(-34.292 -12.972)" fill="#0a3459"/>
    <path id="Trazado_180" data-name="Trazado 180" d="M3866.328,650.552a1.311,1.311,0,0,1-1.328-1.27,1.3,1.3,0,0,1,2.6-.056A1.311,1.311,0,0,1,3866.328,650.552Z" transform="translate(-49.466 -15.704)" fill="#0a3459"/>
    <path id="Trazado_181" data-name="Trazado 181" d="M3796.708,686.734a1.3,1.3,0,0,1-2.6.081,1.3,1.3,0,0,1,2.6-.081Z" transform="translate(-23.02 -29.701)" fill="#0a3459"/>
    <path id="Trazado_182" data-name="Trazado 182" d="M3870.981,768.453a1.948,1.948,0,0,1-.884-1.924c.054-1.186,0-2.377.016-3.567a5.6,5.6,0,0,1,5.625-5.647c.867-.011,1.734,0,2.72,0,0-.928.022-1.815-.02-2.7-.008-.166-.251-.356-.426-.475a11.134,11.134,0,0,1-5.117-9.718c0-2.175-.007-4.35,0-6.526a9.769,9.769,0,0,1,9.844-9.819q3.305-.012,6.611,0c1.142,0,1.628.5,1.639,1.636.006.725-.044,1.454.026,2.173a1.017,1.017,0,0,0,.513.707,5.6,5.6,0,0,1,3.63,5.334c-.012,2.81.078,5.634-.174,8.426a10.2,10.2,0,0,1-4.758,7.639,1.165,1.165,0,0,0-.641,1.176c.054.685.013,1.376.013,2.146h2.322a5.568,5.568,0,0,1,5.887,4.386,2.247,2.247,0,0,0,.144.313v6.44Zm17.227-37.594c-1.842,0-3.575-.015-5.308,0a6.99,6.99,0,0,0-7.218,7.256c-.016,1.883-.025,3.767.014,5.65a2.277,2.277,0,0,0,.371,1.194,9.929,9.929,0,0,0,15.96-.055,2.126,2.126,0,0,0,.341-1.115c.033-1.912.025-3.824.012-5.737a2.794,2.794,0,0,0-2.79-3.016,1.361,1.361,0,0,1-1.379-1.46C3888.194,732.712,3888.208,731.846,3888.208,730.859Zm-15.3,34.747h22.254c0-.986.034-1.913-.008-2.836a2.707,2.707,0,0,0-2.687-2.658q-8.435-.039-16.87,0a2.693,2.693,0,0,0-2.678,2.574C3872.862,763.637,3872.907,764.593,3872.907,765.606Zm5.115-15.214c3.486,3.972,9.626,3.179,12.033-.07A13.663,13.663,0,0,1,3878.022,750.392Zm3.271,5.366v1.5h5.475v-1.5Z" transform="translate(-51.366 -45.588)" fill="#0a3459"/>
    <path id="Trazado_183" data-name="Trazado 183" d="M3802.125,767.677a1.949,1.949,0,0,1-.884-1.924c.055-1.187,0-2.378.016-3.567a5.6,5.6,0,0,1,5.626-5.646c.867-.011,1.734,0,2.667,0v-1.392h-.9c-1.972,0-3.944.01-5.916-.005a1.337,1.337,0,0,1-1.47-1.45c-.007-4.786-.1-9.575.031-14.358a13.894,13.894,0,0,1,27.652-1.3,15.968,15.968,0,0,1,.145,1.9q.018,6.744,0,13.488c0,1.252-.469,1.712-1.735,1.715q-2.871.005-5.742,0h-.849v1.392c.893,0,1.753-.006,2.613,0a5.6,5.6,0,0,1,5.714,5.734c.008,1.16-.04,2.322.015,3.48a1.947,1.947,0,0,1-.883,1.924Zm24.145-15.352c0-4.529,0-8.986,0-13.443a5.147,5.147,0,0,0-.107-.686,11.107,11.107,0,0,0-22.074,1.085c-.128,4.285-.027,8.577-.024,12.866,0,.048.049.1.095.179Zm-22.223,12.513h22.25c0-1.032.054-2.015-.013-2.99a2.78,2.78,0,0,0-2.729-2.531,16.239,16.239,0,0,0-7.464,1.13,2.581,2.581,0,0,1-1.806.009,16.336,16.336,0,0,0-7.463-1.14,2.8,2.8,0,0,0-2.766,2.683C3804.012,762.921,3804.046,763.846,3804.046,764.839Zm8.371-9.65c-.067,1.718-.067,1.718,1.484,2.233.274.091.569.307.815.26a14.172,14.172,0,0,0,3.035-.785c.253-.111.148-1.043.2-1.6,0-.02-.028-.043-.073-.108Z" transform="translate(-25.674 -44.812)" fill="#0a3459"/>
    <path id="Trazado_184" data-name="Trazado 184" d="M3733.286,768.458a1.948,1.948,0,0,1-.884-1.923c.054-1.187,0-2.378.016-3.567a5.6,5.6,0,0,1,5.624-5.647c.867-.011,1.734,0,2.72,0,0-.927.022-1.815-.02-2.7-.008-.167-.25-.356-.425-.476a11.078,11.078,0,0,1-5.111-9.718,59.7,59.7,0,0,1,.181-6.859,10.967,10.967,0,0,1,10.254-9.465,11.1,11.1,0,0,1,11.414,8.188,14.949,14.949,0,0,1,.4,3.524,56.19,56.19,0,0,1-.161,6.6,10.257,10.257,0,0,1-4.663,7.513,1.355,1.355,0,0,0-.734,1.389c.056.575.017,1.159.024,1.739a1.362,1.362,0,0,0,.082.265c.825,0,1.685-.006,2.543,0a5.6,5.6,0,0,1,5.713,5.735c.008,1.16-.04,2.322.015,3.48a1.947,1.947,0,0,1-.884,1.923Zm21.4-26.936c0-.7.008-1.392,0-2.088a8.337,8.337,0,0,0-7.563-8.5,8.244,8.244,0,0,0-8.976,7.011,49.03,49.03,0,0,0-.135,5.643,2.921,2.921,0,0,0,.575,1.64,9.929,9.929,0,0,0,13.126,2.175c1.94-1.273,3.513-2.8,2.978-5.45A2.243,2.243,0,0,1,3754.689,741.522Zm2.773,24.12c0-1.043.044-2-.011-2.949a2.694,2.694,0,0,0-2.677-2.576q-8.435-.039-16.87,0a2.641,2.641,0,0,0-2.645,2.313,30.76,30.76,0,0,0-.022,3.212Zm-5.115-15.246a13.785,13.785,0,0,1-12.2-.137A8.19,8.19,0,0,0,3752.347,750.4Zm-8.762,6.863h5.477v-1.6c-.944.091-1.832.245-2.72.243-.908,0-1.817-.155-2.757-.246Z" transform="translate(0 -45.594)" fill="#0a3459"/>
    <path id="Trazado_188" data-name="Trazado 188" d="M3819.066,772.562h5.467c.044.065.074.088.073.108-.057.556.049,1.488-.2,1.6a14.167,14.167,0,0,1-3.035.785c-.247.047-.541-.169-.815-.26C3819,774.28,3819,774.28,3819.066,772.562Z" transform="translate(-32.323 -62.186)" fill="#d72162"/>
    <path id="Trazado_190" data-name="Trazado 190" d="M3896.7,614.048h2.539c0,.924-.036,1.814.019,2.7a1.724,1.724,0,0,0,.4.962c.539.611,1.149,1.159,1.688,1.69l-1.767,1.841c-.854-.854-1.712-1.676-2.52-2.544a1.445,1.445,0,0,1-.344-.87C3896.674,616.589,3896.7,615.35,3896.7,614.048Z" transform="translate(-61.288 -3.053)" fill="#d72162"/>
    <g id="Grupo_97" data-name="Grupo 97" transform="translate(3827.765 605.864)">
      <g id="Grupo_96" data-name="Grupo 96">
        <path id="Trazado_191" data-name="Trazado 191" d="M3893.663,624.172a9.154,9.154,0,1,1,9.154-9.154A9.164,9.164,0,0,1,3893.663,624.172Zm0-16.427a7.273,7.273,0,1,0,7.273,7.273A7.281,7.281,0,0,0,3893.663,607.745Z" transform="translate(-3884.509 -605.864)" fill="#0a3459"/>
      </g>
    </g>
  </g>
</svg>
