<svg xmlns="http://www.w3.org/2000/svg" width="119.688" height="118.467" viewBox="0 0 119.688 118.467">
  <g id="Sala_de_Capacitaciones" data-name="Sala de Capacitaciones" transform="translate(-1917.113 -605.864)">
    <path id="Trazado_203" data-name="Trazado 203" d="M2064.428,614.048h2.95c0,1.073-.042,2.107.022,3.135a2,2,0,0,0,.466,1.118c.626.709,1.335,1.346,1.962,1.964l-2.053,2.139c-.992-.992-1.989-1.947-2.928-2.955a1.671,1.671,0,0,1-.4-1.011C2064.4,617,2064.428,615.56,2064.428,614.048Z" transform="translate(-40.018 -2.223)" fill="#d72162"/>
    <g id="Grupo_103" data-name="Grupo 103" transform="translate(2015.531 605.864)">
      <g id="Grupo_102" data-name="Grupo 102">
        <path id="Trazado_204" data-name="Trazado 204" d="M2062.874,627.133a10.634,10.634,0,1,1,10.635-10.635A10.646,10.646,0,0,1,2062.874,627.133Zm0-19.084a8.449,8.449,0,1,0,8.45,8.45A8.459,8.459,0,0,0,2062.874,608.049Z" transform="translate(-2052.24 -605.864)" fill="#0a3459"/>
      </g>
    </g>
    <path id="Trazado_205" data-name="Trazado 205" d="M2045.675,716.891h-3.343v26.788H2039V716.894c-1.181,0-2.251-.012-3.321.013a.643.643,0,0,0-.482.282c-1.184,2.444-3.233,3.226-5.789,3.062a2.885,2.885,0,0,0-.452.05v8.284h6.584v10.08H2032.3v11.71h-3.369v-11.6h-16.788v11.611h-3.333V738.712h-3.343V728.669h6.6v-8.425c-.591,0-1.142.023-1.691,0a4.9,4.9,0,0,1-4.323-2.678,1.042,1.042,0,0,0-1.111-.685c-.9.051-1.812.014-2.833.014v26.772h-3.368V716.937h-3.321v-10.08h9.892c.1-.455.174-.852.273-1.243a4.914,4.914,0,0,1,4.689-3.8q10.219-.054,20.44,0c2.665.016,4.5,1.9,4.955,5.015h10.01Zm-25.164-11.743c-3.215,0-6.43-.005-9.645,0-1.508,0-2.09.587-2.1,2.093q-.013,3.773,0,7.548c.005,1.505.59,2.095,2.094,2.1q9.645.009,19.289,0c1.5,0,2.092-.592,2.1-2.1q.014-3.774,0-7.548c-.005-1.5-.591-2.09-2.1-2.094C2026.942,705.142,2023.727,705.148,2020.512,705.148ZM2025.5,720.3h-9.948v8.252h9.948Zm-16.677,14.967h23.353v-3.23h-23.353Zm-3.46-21.781v-3.247h-6.581v3.247Zm30.29-.036h6.616v-3.211h-6.616Z" transform="translate(-21.272 -26.057)" fill="#0a3459"/>
    <path id="Trazado_206" data-name="Trazado 206" d="M1930.9,676.063v-50.2H2018v50.2Zm60.36-16.643h16.786v6.568h6.629V629.224h-80.4V666h56.986Zm-57,13.293h80.387v-3.236h-80.387Zm70.361-9.918h-9.97v3.217h9.97Z" transform="translate(-3.745 -5.434)" fill="#0a3459"/>
    <path id="Trazado_207" data-name="Trazado 207" d="M1964.049,743.682h-3.37V716.9c-1.176,0-2.279-.014-3.381.016a.66.66,0,0,0-.439.343,5.3,5.3,0,0,1-5.52,2.991c-.2-.012-.409.016-.68.028v8.325h6.564v10.081h-3.251v11.682H1950.6V738.752H1933.85v11.632h-3.334V738.73h-3.35V728.686h6.583v-8.44c-.6,0-1.189.032-1.771-.006a5.134,5.134,0,0,1-4.314-2.731,1.352,1.352,0,0,0-.912-.586c-.937-.078-1.883-.028-2.941-.028v26.766h-3.37V716.949h-3.327V706.844h9.9c.671-3.631,2.38-5.047,5.988-5.047q9.33,0,18.66,0c3.343,0,5.192,1.6,5.691,5.005h9.949V716.87h-3.254Zm-21.855-38.531c-3.215,0-6.43-.006-9.645,0-1.5,0-2.08.591-2.084,2.1-.008,2.551-.012,5.1,0,7.653.007,1.366.62,1.978,2,1.98q9.75.013,19.5,0c1.364,0,1.973-.624,1.98-2q.02-3.827,0-7.653c-.006-1.5-.6-2.08-2.106-2.084C1948.623,705.146,1945.408,705.152,1942.193,705.152Zm4.956,23.463v-8.3h-9.9v8.3Zm6.752,3.452h-23.389v3.224H1953.9Zm-33.458-18.6h6.578v-3.227h-6.578Zm43.518-3.223h-6.592v3.22h6.592Z" transform="translate(0 -26.061)" fill="#0a3459"/>
    <path id="Trazado_209" data-name="Trazado 209" d="M2028.4,676.569v3.217h-9.97v-3.217Z" transform="translate(-27.523 -19.208)" fill="#d72162"/>
  </g>
</svg>
