<svg xmlns="http://www.w3.org/2000/svg" width="263.12" height="44.176" viewBox="0 0 263.12 44.176">
  <path id="Trazado_15572" data-name="Trazado 15572" d="M44.088-30.712,35.508,0h-7.26L22.484-21.868,16.456,0,9.24.044.968-30.712h6.6L12.98-6.864l6.248-23.848h6.864L31.988-7l5.456-23.716ZM58.916.4A12.839,12.839,0,0,1,52.58-1.166a11.248,11.248,0,0,1-4.422-4.422,13.25,13.25,0,0,1-1.606-6.6,12.969,12.969,0,0,1,1.65-6.6,11.466,11.466,0,0,1,4.51-4.422,13.09,13.09,0,0,1,6.38-1.562,13.089,13.089,0,0,1,6.38,1.562,11.466,11.466,0,0,1,4.51,4.422,12.969,12.969,0,0,1,1.65,6.6,12.7,12.7,0,0,1-1.694,6.6,11.731,11.731,0,0,1-4.576,4.422A13.306,13.306,0,0,1,58.916.4Zm0-5.368a6.408,6.408,0,0,0,3.146-.814,5.916,5.916,0,0,0,2.354-2.442,8.229,8.229,0,0,0,.88-3.96,7.338,7.338,0,0,0-1.826-5.346A6,6,0,0,0,59-19.4a5.861,5.861,0,0,0-4.422,1.87A7.449,7.449,0,0,0,52.8-12.188a7.567,7.567,0,0,0,1.738,5.346A5.723,5.723,0,0,0,58.916-4.972Zm23.408-15.62a8.66,8.66,0,0,1,3.1-3.036,8.627,8.627,0,0,1,4.378-1.1v6.468H88.176A6.24,6.24,0,0,0,83.8-16.9q-1.474,1.364-1.474,4.752V0h-6.16V-24.376h6.16ZM108.372,0,100.1-10.384V0H93.94V-32.56h6.16v18.524l8.184-10.34h8.008L105.556-12.144,116.38,0ZM125.8-20.856a9.354,9.354,0,0,1,3.278-2.794,9.935,9.935,0,0,1,4.774-1.122,10.66,10.66,0,0,1,5.654,1.54,10.835,10.835,0,0,1,4,4.378,14.073,14.073,0,0,1,1.474,6.578,14.342,14.342,0,0,1-1.474,6.622,11.086,11.086,0,0,1-4,4.466A10.437,10.437,0,0,1,133.848.4a9.836,9.836,0,0,1-4.73-1.1A10.147,10.147,0,0,1,125.8-3.476V11.616h-6.16V-24.376h6.16Zm12.892,8.58a7.65,7.65,0,0,0-.9-3.806,6.245,6.245,0,0,0-2.376-2.442,6.358,6.358,0,0,0-3.19-.836,6.152,6.152,0,0,0-3.146.858,6.368,6.368,0,0,0-2.376,2.486,7.775,7.775,0,0,0-.9,3.828,7.775,7.775,0,0,0,.9,3.828,6.368,6.368,0,0,0,2.376,2.486,6.152,6.152,0,0,0,3.146.858,6.113,6.113,0,0,0,3.19-.88A6.532,6.532,0,0,0,137.786-8.4,7.87,7.87,0,0,0,138.688-12.276Zm16.94-20.284V0h-6.16V-32.56Zm4.488,20.284a14.108,14.108,0,0,1,1.474-6.556,10.8,10.8,0,0,1,4-4.4,10.66,10.66,0,0,1,5.654-1.54,9.932,9.932,0,0,1,4.774,1.1A9.687,9.687,0,0,1,179.3-20.9v-3.476h6.2V0h-6.2V-3.564a9.163,9.163,0,0,1-3.278,2.838A10.029,10.029,0,0,1,171.2.4a10.359,10.359,0,0,1-5.61-1.584,11.086,11.086,0,0,1-4-4.466A14.342,14.342,0,0,1,160.116-12.276Zm19.184.088a7.9,7.9,0,0,0-.88-3.85,6.2,6.2,0,0,0-2.376-2.464,6.35,6.35,0,0,0-3.212-.858,6.239,6.239,0,0,0-3.168.836,6.3,6.3,0,0,0-2.354,2.442,7.65,7.65,0,0,0-.9,3.806,7.9,7.9,0,0,0,.9,3.85,6.494,6.494,0,0,0,2.376,2.53,6.036,6.036,0,0,0,3.146.88,6.35,6.35,0,0,0,3.212-.858,6.2,6.2,0,0,0,2.376-2.464A7.9,7.9,0,0,0,179.3-12.188Zm10.648,0a13.673,13.673,0,0,1,1.54-6.622,11.007,11.007,0,0,1,4.268-4.4A12.349,12.349,0,0,1,202-24.772a12.012,12.012,0,0,1,7.5,2.266,11.022,11.022,0,0,1,3.982,6.358h-6.644a4.859,4.859,0,0,0-1.782-2.486,5.174,5.174,0,0,0-3.1-.9,5.08,5.08,0,0,0-4.18,1.914,8.471,8.471,0,0,0-1.54,5.434,8.394,8.394,0,0,0,1.54,5.39,5.08,5.08,0,0,0,4.18,1.914,4.672,4.672,0,0,0,4.884-3.344h6.644a11.243,11.243,0,0,1-4,6.292A11.8,11.8,0,0,1,202,.4a12.349,12.349,0,0,1-6.248-1.562,11.007,11.007,0,0,1-4.268-4.4A13.673,13.673,0,0,1,189.948-12.188Zm50.732-.528a14.539,14.539,0,0,1-.176,2.376h-17.82A6.06,6.06,0,0,0,224.532-6.2a5.7,5.7,0,0,0,4,1.5,5.03,5.03,0,0,0,4.884-2.948h6.644a11.1,11.1,0,0,1-4.048,5.786A11.818,11.818,0,0,1,228.668.4a12.716,12.716,0,0,1-6.314-1.562A10.994,10.994,0,0,1,218-5.588a13.549,13.549,0,0,1-1.562-6.6,13.8,13.8,0,0,1,1.54-6.644,10.745,10.745,0,0,1,4.312-4.4,12.918,12.918,0,0,1,6.38-1.54,12.815,12.815,0,0,1,6.226,1.5,10.529,10.529,0,0,1,4.268,4.246A12.849,12.849,0,0,1,240.68-12.716Zm-6.38-1.76a4.885,4.885,0,0,0-1.716-3.806,6.079,6.079,0,0,0-4.092-1.43,5.592,5.592,0,0,0-3.85,1.386,6.094,6.094,0,0,0-1.914,3.85ZM254.5.4a12.853,12.853,0,0,1-5.368-1.078,9.485,9.485,0,0,1-3.762-2.926A7.415,7.415,0,0,1,243.848-7.7h6.2a3.379,3.379,0,0,0,1.386,2.332,4.821,4.821,0,0,0,3.014.924,4.68,4.68,0,0,0,2.75-.7,2.131,2.131,0,0,0,.99-1.8,1.9,1.9,0,0,0-1.21-1.782,22.769,22.769,0,0,0-3.85-1.3,32.627,32.627,0,0,1-4.466-1.364,7.753,7.753,0,0,1-2.992-2.156,5.787,5.787,0,0,1-1.254-3.916,6.319,6.319,0,0,1,1.166-3.7,7.828,7.828,0,0,1,3.344-2.64,12.536,12.536,0,0,1,5.126-.968,10.467,10.467,0,0,1,6.952,2.178,8.069,8.069,0,0,1,2.86,5.874h-5.9a3.192,3.192,0,0,0-1.21-2.31,4.5,4.5,0,0,0-2.882-.858,4.541,4.541,0,0,0-2.574.616,1.964,1.964,0,0,0-.9,1.716,2.017,2.017,0,0,0,1.232,1.87,19.132,19.132,0,0,0,3.828,1.3,32.494,32.494,0,0,1,4.356,1.364,7.7,7.7,0,0,1,2.97,2.178,5.981,5.981,0,0,1,1.3,3.894,6.457,6.457,0,0,1-1.166,3.784A7.68,7.68,0,0,1,259.578-.55,12.67,12.67,0,0,1,254.5.4Z" transform="translate(-0.968 32.56)" fill="#d72162"/>
</svg>
